<?xml version="1.0" encoding="UTF-8"?>
<svg version="1.1" xmlns="http://www.w3.org/2000/svg" width="536" height="492">
<path d="M0 0 C1.56998615 -0.00462356 3.13996795 -0.01098613 4.70994091 -0.01890898 C8.97143061 -0.03542595 13.23255662 -0.0274375 17.49404669 -0.0149641 C22.11036338 -0.00584272 26.72662135 -0.01991817 31.34292603 -0.03088379 C40.36546488 -0.04859857 49.38787005 -0.04486058 58.41041398 -0.03323323 C65.7482603 -0.02417132 73.08606936 -0.02298679 80.42391968 -0.02732849 C81.47134533 -0.02794142 82.51877098 -0.02855436 83.59793681 -0.02918586 C85.72627331 -0.03046486 87.8546098 -0.03176172 89.98294628 -0.03307623 C109.90433971 -0.0444614 129.82565931 -0.03140076 149.74704063 -0.00987476 C166.81194749 0.00799433 183.87674549 0.00488964 200.94165039 -0.0135498 C220.79550752 -0.03499304 240.64930006 -0.04336295 260.50316715 -0.03110075 C262.62333742 -0.02982666 264.74350769 -0.02856917 266.86367798 -0.02732849 C268.42811049 -0.02640284 268.42811049 -0.02640284 270.02414769 -0.02545848 C277.34662987 -0.02201593 284.66907083 -0.02781023 291.99154663 -0.0372467 C300.92459003 -0.04850651 309.85749297 -0.04534334 318.79052043 -0.02412373 C323.341572 -0.01366666 327.89239005 -0.0093994 332.44343948 -0.02272034 C336.62083433 -0.03476197 340.79778226 -0.02789109 344.97513735 -0.00681013 C346.47491732 -0.00239332 347.97473617 -0.00449734 349.47449052 -0.01431328 C371.37988498 -0.14652884 391.22593951 6.14405298 407.44458008 21.22668457 C422.37170911 35.98850268 430.52969999 55.65516835 430.77522659 76.58573914 C430.78330236 79.00795349 430.78592529 81.43018976 430.78424072 83.85241699 C430.78682796 85.20497853 430.78984212 86.5575393 430.79324412 87.91009903 C430.80127536 91.61225607 430.80310152 95.31439369 430.80384159 99.01655841 C430.80569895 103.0154031 430.81324974 107.01423787 430.81997681 111.01307678 C430.83353351 119.75100061 430.83958081 128.48891983 430.84398746 137.22685242 C430.84675464 142.68850806 430.85099288 148.15016195 430.85549164 153.61181641 C430.86768129 168.74948007 430.8779809 183.88714233 430.88136673 199.02481079 C430.8815863 199.99284893 430.88180586 200.96088707 430.88203208 201.9582597 C430.88225036 202.92854544 430.88246864 203.89883118 430.88269353 204.89851952 C430.88313699 206.86451594 430.88358355 208.83051237 430.8840332 210.79650879 C430.88425463 211.77170007 430.88447606 212.74689135 430.8847042 213.75163388 C430.88864939 229.54129499 430.90609625 245.33090987 430.92939273 261.12055314 C430.95314721 277.35238362 430.96557046 293.58419095 430.96673465 309.81603909 C430.96764916 318.9211574 430.9733447 328.02621548 430.99155426 337.13131714 C431.00701071 344.88686002 431.01204321 352.64232405 431.00381616 360.39787942 C430.99992906 364.34924655 431.00074334 368.30045517 431.0148735 372.25180244 C431.14140441 409.7950544 431.14140441 409.7950544 424.39379883 423.82043457 C423.93602051 424.80886353 423.93602051 424.80886353 423.46899414 425.81726074 C416.31126162 440.90698205 406.34293131 452.33221271 391.64379883 460.50793457 C390.83297852 460.96812988 390.0221582 461.4283252 389.18676758 461.90246582 C375.0637012 469.4545417 361.25513538 470.65815602 345.55970764 470.65510559 C344.0181179 470.65840869 342.47652903 470.66213519 340.93494123 470.66624707 C336.71024496 470.67622432 332.48556289 470.67997694 328.26085651 470.68263638 C323.6996144 470.68655213 319.13838341 470.69612948 314.57714844 470.70484924 C303.56807175 470.72457688 292.55899419 470.73467473 281.54990426 470.74357703 C276.35942997 470.74796562 271.16895669 470.75333091 265.9784832 470.7585659 C248.71424732 470.77557376 231.45001205 470.79006694 214.18576908 470.79731464 C209.70945802 470.79922438 205.23314697 470.80114474 200.75683594 470.80310059 C199.64433869 470.80358433 198.53184144 470.80406807 197.38563215 470.80456647 C179.37215103 470.81286319 161.35873639 470.83819608 143.34528429 470.87068126 C124.83195445 470.90379453 106.31865835 470.92176722 87.80529875 470.92495888 C77.41854344 470.92711992 67.03188512 470.93580913 56.64515877 470.96142006 C47.79792189 470.98318533 38.95080557 470.99114886 30.10354496 470.98145328 C25.59507079 470.97692556 21.08684506 470.97870523 16.57840538 470.99821472 C12.43953183 471.0159692 8.30108569 471.01475051 4.16220682 470.99931743 C2.67627995 470.99695984 1.19032249 471.00116719 -0.29555797 471.01314608 C-22.72468071 471.18255675 -43.50572773 464.26009596 -60.16479492 448.79309082 C-76.63285425 431.62051559 -82.51255007 411.34934724 -82.49664307 388.12512207 C-82.49922941 386.75621171 -82.50224332 385.38730209 -82.50564647 384.01839352 C-82.51368825 380.26644027 -82.51550446 376.51450619 -82.51624393 372.76254535 C-82.51809945 368.71189537 -82.52564935 364.66125522 -82.53237915 360.61061096 C-82.54594358 351.75699626 -82.55198443 342.90338609 -82.55638981 334.04976273 C-82.55915579 328.51692866 -82.56339383 322.98409632 -82.56789398 317.45126343 C-82.58008487 302.11976735 -82.59038409 286.78827267 -82.59376907 271.45677185 C-82.59398864 270.47607658 -82.59420821 269.49538131 -82.59443443 268.48496801 C-82.59476184 267.01048437 -82.59476184 267.01048437 -82.59509587 265.50621319 C-82.59553933 263.51443672 -82.5959859 261.52266025 -82.59643555 259.53088379 C-82.59665698 258.54290224 -82.59687841 257.55492069 -82.59710655 256.5370003 C-82.60105186 240.53967148 -82.61849854 224.54238829 -82.64179507 208.54507709 C-82.66554336 192.10423082 -82.67797253 175.66340741 -82.67913699 159.22254372 C-82.68005187 149.99839416 -82.68575681 140.77430403 -82.7039566 131.5501709 C-82.71940468 123.69319956 -82.72445045 115.83630602 -82.7162185 107.97932237 C-82.71232842 103.97542996 -82.71316059 99.97169399 -82.72727585 95.96782112 C-82.74011426 92.29228481 -82.73873139 88.61702092 -82.72668514 84.94148445 C-82.72383607 83.00336749 -82.73558818 81.06524537 -82.74810719 79.12716675 C-82.62905018 57.70869037 -75.77428449 37.68535128 -60.54370117 22.25793457 C-43.51078137 5.60099403 -23.34387163 -0.15278635 0 0 Z " fill="#FCFCFD" transform="translate(92.356201171875,11.4920654296875)"/>
<path d="M0 0 C0.71353638 -0.00761353 1.42707275 -0.01522705 2.16223145 -0.02307129 C3.66492223 -0.0338359 5.1676876 -0.03674021 6.67041016 -0.03222656 C8.96253494 -0.03125264 11.25132545 -0.07293779 13.54296875 -0.1171875 C15.00780556 -0.12239417 16.47265394 -0.1250827 17.9375 -0.125 C18.61784302 -0.14139526 19.29818604 -0.15779053 19.99914551 -0.17468262 C23.81637648 -0.11954033 25.38477521 0.40144709 28.40039062 2.81835938 C30.46875 5.46875 30.46875 5.46875 31.09375 8.46875 C30.24829701 12.52692434 28.6566956 13.86724194 25.46875 16.46875 C22.23901367 17.12817383 22.23901367 17.12817383 18.63671875 17.17578125 C17.34443359 17.20478516 16.05214844 17.23378906 14.72070312 17.26367188 C13.36588781 17.2700602 12.01106987 17.27591288 10.65625 17.28125 C9.2818616 17.30440748 7.90750856 17.32977545 6.53320312 17.35742188 C3.17809485 17.41628342 -0.17570874 17.45257337 -3.53125 17.46875 C-5.66413598 23.56056692 -7.41995368 29.65842313 -8.90625 35.9375 C-9.11685059 36.81668091 -9.32745117 37.69586182 -9.54443359 38.60168457 C-9.98672151 40.45337586 -10.42696027 42.30555771 -10.86523438 44.15820312 C-11.5233062 46.93522761 -12.19088427 49.7098427 -12.859375 52.484375 C-15.17844586 62.19280732 -17.25051975 71.87462057 -18.8371582 81.73071289 C-19.57910627 85.72648034 -20.58837766 89.50344284 -21.71875 93.40625 C-21.94369141 94.18395752 -22.16863281 94.96166504 -22.40039062 95.76293945 C-22.59826172 96.44573975 -22.79613281 97.12854004 -23 97.83203125 C-25.56595406 107.00287657 -27.60854456 116.31590813 -29.7644043 125.58959961 C-29.93222412 126.3114595 -30.10004395 127.0333194 -30.27294922 127.77705383 C-30.73307654 129.75941366 -31.19119016 131.74224058 -31.64916992 133.72509766 C-32.27543957 136.38306025 -32.91682884 139.03313541 -33.58154297 141.68139648 C-34.24688734 144.3347351 -34.89542544 146.98422633 -35.49609375 149.65234375 C-36.47060651 153.93375275 -37.48916402 158.20331732 -38.53125 162.46875 C-38.75554687 163.39945313 -38.97984375 164.33015625 -39.2109375 165.2890625 C-41.08659131 171.93489761 -44.80614464 177.26175265 -50.8125 180.8203125 C-56.30107787 183.36335358 -61.55920376 184.51004058 -67.59570312 184.82592773 C-68.58284302 184.87945908 -69.56998291 184.93299042 -70.58703613 184.98814392 C-71.65143921 185.04232986 -72.71584229 185.09651581 -73.8125 185.15234375 C-74.93523315 185.21277359 -76.05796631 185.27320343 -77.21472168 185.33546448 C-80.82005808 185.52915436 -84.42562086 185.71809451 -88.03125 185.90625 C-103.30685313 186.70927997 -118.57182074 187.57813072 -133.83088684 188.65327454 C-148.63955915 189.69496629 -163.45367868 190.64984939 -178.26920128 191.58854198 C-182.70857986 191.86982429 -187.14778556 192.15339689 -191.58666992 192.44238281 C-195.98350392 192.72859079 -200.38067052 193.00907205 -204.77811623 193.28571701 C-206.41847908 193.38981636 -208.05872444 193.49578926 -209.69882774 193.60390091 C-214.97426697 193.9507311 -220.24913961 194.24457824 -225.53125 194.46875 C-226.32618992 194.50405571 -227.12112984 194.53936142 -227.94015884 194.575737 C-230.35052346 194.67063665 -232.75948205 194.73188978 -235.17114258 194.78271484 C-235.89234378 194.81238153 -236.61354498 194.84204823 -237.35660076 194.87261391 C-243.60318375 194.9403533 -248.81849884 192.9605031 -253.44921875 188.70703125 C-257.91411866 181.93412155 -259.8781899 174.50305759 -261.92236328 166.74804688 C-262.51311069 164.53665239 -263.13806428 162.33842889 -263.77734375 160.140625 C-266.42808606 150.97037785 -268.65626606 141.74357206 -270.72875977 132.42651367 C-272.14314339 126.0908956 -273.71718859 119.83527562 -275.43359375 113.57421875 C-276.88989604 108.20795715 -278.19716668 102.80388235 -279.53125 97.40625 C-281.13306533 90.93318116 -282.76532528 84.48864897 -284.65625 78.09375 C-286.20168257 72.79512404 -287.54400501 67.47121783 -288.78125 62.09375 C-288.95672363 61.35592285 -289.13219727 60.6180957 -289.31298828 59.85791016 C-291.93850944 48.12387057 -291.93850944 48.12387057 -289.32421875 43.19140625 C-288.79441406 42.64355469 -288.26460938 42.09570312 -287.71875 41.53125 C-287.19667969 40.96535156 -286.67460937 40.39945313 -286.13671875 39.81640625 C-283.3325695 37.46255834 -280.66821037 37.34398865 -277.16405964 37.34570217 C-276.26633723 37.34371112 -275.36861481 37.34172007 -274.44368869 37.33966869 C-273.45634445 37.34258153 -272.46900021 37.34549437 -271.45173645 37.34849548 C-270.40378377 37.34764106 -269.35583109 37.34678663 -268.27612227 37.34590632 C-264.74762233 37.34425286 -261.21916942 37.34977075 -257.69067383 37.35522461 C-255.16809592 37.35550654 -252.64551793 37.35534864 -250.12294006 37.3547821 C-244.6832551 37.35455403 -239.24358541 37.35739933 -233.80390358 37.36301994 C-225.93900388 37.37114115 -218.07410998 37.3737508 -210.20920654 37.37500793 C-197.44944496 37.37719747 -184.68968976 37.38385491 -171.92993164 37.39331055 C-159.53377311 37.40248719 -147.13761632 37.40956679 -134.74145508 37.41381836 C-133.59563103 37.41421244 -133.59563103 37.41421244 -132.42665903 37.41461449 C-128.5945487 37.41591951 -124.76243836 37.41718322 -120.93032801 37.41842639 C-89.13063066 37.42879596 -57.33094132 37.44648587 -25.53125 37.46875 C-25.21425916 36.0588612 -24.89830158 34.64874007 -24.58276367 33.23852539 C-24.4067009 32.45328995 -24.23063812 31.6680545 -24.04924011 30.85902405 C-23.56593819 28.62881922 -23.12640564 26.39532332 -22.70703125 24.15234375 C-20.79069151 14.45080384 -18.67378711 7.93541465 -10.38452148 1.90771484 C-6.8771075 0.13885217 -3.84219841 0.00113749 0 0 Z " fill="#070714" transform="translate(408.53125,96.53125)"/>
<path d="M0 0 C0.78393192 -0.0060911 1.56786385 -0.01218221 2.37555128 -0.01845789 C5.00495467 -0.03512002 7.6338755 -0.03030758 10.26332092 -0.0255127 C12.14740503 -0.03285114 14.03148464 -0.04143671 15.91555786 -0.05117798 C21.03536784 -0.0734257 26.15501704 -0.07632305 31.27486873 -0.07443047 C35.546892 -0.07431092 39.818881 -0.08286846 44.09089476 -0.09120798 C54.16792456 -0.11045359 64.24487152 -0.11332156 74.32191467 -0.10656738 C84.72280248 -0.09992453 95.12333584 -0.12279821 105.52415174 -0.15988111 C114.44994751 -0.19055204 123.37562911 -0.201941 132.30147654 -0.1980443 C137.63427911 -0.1959742 142.96680588 -0.20149638 148.29955864 -0.22593689 C153.31393844 -0.24815852 158.32774087 -0.24636439 163.34212303 -0.22600937 C165.18318376 -0.22259125 167.024283 -0.2277228 168.8652916 -0.24199295 C171.37758726 -0.26012383 173.88791129 -0.24748412 176.40014648 -0.22705078 C177.12991587 -0.23956863 177.85968526 -0.25208648 178.61156887 -0.26498365 C182.48639515 -0.19734561 184.14722832 0.30230822 187.22377872 2.73793793 C189.26356506 5.39440918 189.26356506 5.39440918 189.76356506 8.51940918 C189.26356506 11.39440918 189.26356506 11.39440918 187.88856506 13.26940918 C186.26356506 14.39440918 186.26356506 14.39440918 184.26356506 14.39440918 C184.26356506 15.05440918 184.26356506 15.71440918 184.26356506 16.39440918 C159.31628633 16.51115224 134.36904847 16.59935319 109.4215517 16.65347004 C97.83827909 16.67926406 86.25517609 16.71443764 74.67201233 16.77160645 C64.57745206 16.82140454 54.48301461 16.85369147 44.38833493 16.86485165 C39.04201283 16.87137646 33.69604213 16.88673674 28.34983253 16.92305946 C23.31915082 16.95696199 18.28896572 16.96747369 13.25818062 16.95994759 C11.41065015 16.9613247 9.56310332 16.97129134 7.71567154 16.99043655 C5.19446894 17.01528557 2.67514548 17.00934519 0.15390015 16.99568176 C-0.57859772 17.01024597 -1.31109558 17.02481018 -2.06579036 17.03981572 C-5.99438161 16.98219644 -7.60885802 16.49777205 -10.70394611 13.99013042 C-12.73643494 11.39440918 -12.73643494 11.39440918 -13.14659119 9.26159668 C-13.03186462 8.6041748 -12.91713806 7.94675293 -12.79893494 7.26940918 C-12.7074115 6.60683105 -12.61588806 5.94425293 -12.52159119 5.26159668 C-10.2137017 -0.22681713 -5.2206031 -0.03799861 0 0 Z " fill="#0A0916" transform="translate(169.73643493652344,321.6055908203125)"/>
<path d="M0 0 C16.83 0 33.66 0 51 0 C51 18.15 51 36.3 51 55 C35.49 55 19.98 55 4 55 C3.67 49.72 3.34 44.44 3 39 C2.69560534 35.84428345 2.37942272 32.70755866 2 29.5625 C1.5 25.25390625 1.5 25.25390625 1.25390625 23.12548828 C1.08494407 21.71107984 0.9052848 20.29790737 0.71484375 18.88623047 C-0.10843107 12.44062634 0 6.67230347 0 0 Z " fill="#F9F9F9" transform="translate(199,150)"/>
<path d="M0 0 C16.17 0 32.34 0 49 0 C49 16.11192481 49 16.11192481 48.37890625 22.84765625 C48.31468979 23.59285019 48.25047333 24.33804413 48.18431091 25.1058197 C48.05011793 26.64916573 47.91309528 28.19226843 47.77319336 29.73510742 C47.55997191 32.09042622 47.35647315 34.44644411 47.15429688 36.80273438 C47.02139066 38.31775733 46.88794723 39.83273327 46.75390625 41.34765625 C46.66321617 42.39144188 46.66321617 42.39144188 46.57069397 43.45631409 C46.240899 47.05825757 45.71247749 50.43761254 45 54 C30.15 54 15.3 54 0 54 C0 36.18 0 18.36 0 0 Z " fill="#FCFCFD" transform="translate(266,151)"/>
<path d="M0 0 C16.5 0 33 0 50 0 C50.66 6.661875 51.32 13.32375 52 20.1875 C52.20882812 22.26184326 52.41765625 24.33618652 52.6328125 26.47338867 C52.79737116 28.16320045 52.96146293 29.85305779 53.125 31.54296875 C53.21136719 32.38331665 53.29773438 33.22366455 53.38671875 34.08947754 C54.06074669 41.15373165 54 47.80434293 54 55 C40.8 55 27.6 55 14 55 C12.54953555 50.64860665 11.3003152 46.44690327 10.1953125 42.01171875 C10.03006073 41.35025345 9.86480896 40.68878815 9.69454956 40.00727844 C9.34554174 38.60823935 8.99767137 37.20891605 8.65087891 35.80932617 C8.13576707 33.73094319 7.61704743 31.65348905 7.09765625 29.57617188 C4.64779892 19.73482484 2.32322849 9.87372109 0 0 Z " fill="#F8F8F8" transform="translate(134,150)"/>
<path d="M0 0 C16.17 0 32.34 0 49 0 C47.87518949 7.87367357 47.87518949 7.87367357 47.01953125 11.3984375 C46.8277832 12.19596436 46.63603516 12.99349121 46.43847656 13.81518555 C46.2319043 14.65992432 46.02533203 15.50466309 45.8125 16.375 C45.36582129 18.22264075 44.91920982 20.07029775 44.47265625 21.91796875 C44.23562988 22.89427246 43.99860352 23.87057617 43.75439453 24.87646484 C42.95089953 28.2032982 42.15985025 31.53292406 41.37109375 34.86328125 C41.10127686 35.99910645 40.83145996 37.13493164 40.5534668 38.30517578 C40.02347483 40.5362632 39.49495898 42.76770185 38.96801758 44.99951172 C38.6048645 46.5214917 38.6048645 46.5214917 38.234375 48.07421875 C38.02006836 48.97744873 37.80576172 49.88067871 37.58496094 50.8112793 C37 53 37 53 36 55 C23.13 55 10.26 55 -3 55 C-3.41600898 36.41826553 -1.7696811 18.50791489 0 0 Z " fill="#F8F9F9" transform="translate(330,150)"/>
<path d="M0 0 C0.74693115 0.01313232 1.4938623 0.02626465 2.26342773 0.03979492 C8.60010949 0.30150503 13.73671365 1.35612537 18.6875 5.5625 C24.74915493 12.48288938 27.82758076 17.61430399 27.9375 26.875 C27.96328125 28.17050781 27.9890625 29.46601563 28.015625 30.80078125 C27.29188128 39.09798606 21.87994676 44.90732058 15.828125 50.18359375 C9.25966729 54.67713168 1.39842543 54.77047071 -6.29003906 53.94384766 C-12.92149242 52.69344566 -18.24860228 48.28597006 -22.375 43.125 C-26.70410441 36.06667759 -27.43050172 27.50672699 -25.91796875 19.46484375 C-23.51526635 11.66768693 -17.32387071 5.17789213 -10.23974609 1.34326172 C-6.85811115 -0.02669883 -3.61077374 -0.07632132 0 0 Z " fill="#070713" transform="translate(193.3125,344.4375)"/>
<path d="M0 0 C7.80800152 3.66681188 12.38534471 8.36378585 15.5625 16.375 C17.60575985 22.50477955 17.70136656 29.85793746 14.875 35.75 C10.76395256 42.66859203 5.52084503 48.35911453 -2.26171875 50.9921875 C-10.81267077 52.4966638 -19.19883765 52.44206365 -26.4375 47.375 C-27.324375 46.818125 -28.21125 46.26125 -29.125 45.6875 C-35.12389088 39.68860912 -37.54152695 32.62911565 -37.875 24.3125 C-37.80219631 17.11302399 -35.84465438 12.04665437 -31.4375 6.375 C-28.95317778 4.00489949 -26.40329255 2.09804142 -23.4375 0.375 C-22.83421875 0.00246094 -22.2309375 -0.37007813 -21.609375 -0.75390625 C-15.11005575 -3.3606476 -6.44565809 -2.37627948 0 0 Z " fill="#070713" transform="translate(332.4375,346.625)"/>
<path d="M0 0 C15.18 0 30.36 0 46 0 C46.02290338 6.96008302 46.04283219 13.92003633 46.05493164 20.88012695 C46.05997341 23.24992312 46.06680665 25.61971615 46.07543945 27.98950195 C46.0875119 31.38754039 46.09322971 34.78553785 46.09765625 38.18359375 C46.10281754 39.25024765 46.10797882 40.31690155 46.11329651 41.4158783 C46.11337204 42.39681961 46.11344757 43.37776093 46.11352539 44.38842773 C46.115746 45.25668686 46.11796661 46.12494598 46.12025452 47.01951599 C46 49 46 49 45 50 C42.9021653 50.23010949 40.79722475 50.39591088 38.69140625 50.53515625 C36.73364258 50.66567383 36.73364258 50.66567383 34.73632812 50.79882812 C34.04998291 50.84209229 33.3636377 50.88535645 32.65649414 50.92993164 C30.6019387 51.06000318 28.54806984 51.19831764 26.49414062 51.33789062 C19.3187869 51.80500861 12.19091469 52.14448184 5 52 C4.91959473 51.2157666 4.83918945 50.4315332 4.75634766 49.62353516 C4.38000455 45.9572769 4.00264682 42.2911242 3.625 38.625 C3.5571933 37.9657251 3.4893866 37.3064502 3.41952515 36.62719727 C2.51794181 27.8687301 1.59913886 19.11291974 0.55908203 10.36962891 C0.15279951 6.85637727 0 3.5567873 0 0 Z " fill="#F5F6F6" transform="translate(205,221)"/>
<path d="M0 0 C14.52 0 29.04 0 44 0 C44 15.75 44 15.75 43.34375 22.3671875 C43.27716187 23.05765167 43.21057373 23.74811584 43.14196777 24.45950317 C42.93425333 26.59867603 42.71737097 28.73678936 42.5 30.875 C42.35484985 32.35280393 42.21031551 33.83066847 42.06640625 35.30859375 C41.71800047 38.87311958 41.36138558 42.43676382 41 46 C36.6047513 46.34134328 32.20873015 46.67155878 27.8125 47 C25.97268555 47.14308594 25.97268555 47.14308594 24.09570312 47.2890625 C22.87431641 47.37929688 21.65292969 47.46953125 20.39453125 47.5625 C19.28956299 47.64628906 18.18459473 47.73007812 17.04614258 47.81640625 C11.36960618 48.07397913 5.68237708 48 0 48 C0 32.16 0 16.32 0 0 Z " fill="#F6F7F8" transform="translate(265,221)"/>
<path d="M0 0 C12.54 0 25.08 0 38 0 C42.738041 38.79271071 42.738041 38.79271071 42 53 C36.38151972 53.79446837 30.92188824 54.1824628 25.25 54.1875 C24.50878906 54.19974609 23.76757812 54.21199219 23.00390625 54.22460938 C15.60163019 54.24454369 15.60163019 54.24454369 13 52 C12.015625 49.39453125 12.015625 49.39453125 11.25 45.8125 C10.92867691 44.38476189 10.60414294 42.95774463 10.27734375 41.53125 C10.08769043 40.69078125 9.89803711 39.8503125 9.70263672 38.984375 C8.19122486 32.56481332 6.47835166 26.19343532 4.8125 19.8125 C4.10843885 17.1112531 3.40696702 14.4093497 2.70703125 11.70703125 C2.4025708 10.5363208 2.09811035 9.36561035 1.78442383 8.15942383 C1.11355641 5.45737116 0.54600478 2.7300239 0 0 Z " fill="#F7F8F8" transform="translate(152,221)"/>
<path d="M0 0 C12.54 0 25.08 0 38 0 C36.53947184 8.03290489 34.95208183 15.88767946 33.0625 23.8125 C32.81048828 24.90498047 32.55847656 25.99746094 32.29882812 27.12304688 C29.09000671 40.6066622 29.09000671 40.6066622 24 44 C21.1809082 44.22705078 21.1809082 44.22705078 17.80078125 44.1953125 C16.71192627 44.19031738 15.62307129 44.18532227 14.5012207 44.18017578 C13.11894287 44.16196777 11.73666504 44.14375977 10.3125 44.125 C5.919375 44.08375 1.52625 44.0425 -3 44 C-2.01 29.48 -1.02 14.96 0 0 Z " fill="#F7F7F8" transform="translate(324,221)"/>
<path d="M0 0 C0.74403076 0.00950684 1.48806152 0.01901367 2.25463867 0.02880859 C8.52797654 0.26481761 13.68881859 1.57386143 18.6875 5.5625 C20.43625929 7.52239559 21.47980879 9.20201264 22.6875 11.5625 C21.6975 11.8925 20.7075 12.2225 19.6875 12.5625 C19.6875 13.5525 19.6875 14.5425 19.6875 15.5625 C18.6975 15.8925 17.7075 16.2225 16.6875 16.5625 C13.42796141 20.42565685 13.43320469 23.66193162 13.6796875 28.4765625 C13.6875 30.5625 13.6875 30.5625 12.6875 33.5625 C8.98168131 36.91853479 5.01121936 38.91049792 0 39.1875 C-3.51843575 38.98124687 -4.29934357 38.57257726 -7.25 36.3125 C-10.9315079 31.40382281 -11.5530259 28.81617349 -11.3125 22.5625 C-11.9725 22.5625 -12.6325 22.5625 -13.3125 22.5625 C-13.9375 20.6875 -13.9375 20.6875 -14.3125 18.5625 C-13.6525 17.9025 -12.9925 17.2425 -12.3125 16.5625 C-14.9525 16.2325 -17.5925 15.9025 -20.3125 15.5625 C-20.3125 14.9025 -20.3125 14.2425 -20.3125 13.5625 C-20.9725 13.2325 -21.6325 12.9025 -22.3125 12.5625 C-21.30543896 11.30137797 -20.28094887 10.05417029 -19.25 8.8125 C-18.68152344 8.11640625 -18.11304688 7.4203125 -17.52734375 6.703125 C-12.09985589 1.45751063 -7.34971452 -0.15126632 0 0 Z " fill="#090815" transform="translate(193.3125,344.4375)"/>
<path d="M0 0 C3.14799439 1.30025855 4.6372963 2.58893581 6.875 5.125 C8.4976905 9.27187571 8.28465115 12.75372792 7 17 C4.40334658 20.19588113 2.2019559 22.69717699 -1.98828125 23.2734375 C-6.37572791 23.46515786 -8.3405693 23.50509586 -11.9375 20.75 C-15.51210048 15.98386603 -16.74002111 13.13160347 -16 7 C-11.89268572 0.15956581 -7.49203363 -0.71414532 0 0 Z " fill="#F6F7F7" transform="translate(198,360)"/>
<path d="M0 0 C3.60407485 1.89726705 5.75093855 4.62640782 8 8 C8.51152843 11.83646321 8.1457631 13.71408007 6.375 17.1875 C2.8328083 21.3822007 -0.140125 22.7715943 -5.5625 23.4375 C-9.6153857 22.92167818 -11.14159877 21.85840123 -14 19 C-16.69000043 14.96499935 -16.678474 11.74124093 -16 7 C-12.07049543 -0.3350752 -7.9492372 -1.10947943 0 0 Z " fill="#F6F7F7" transform="translate(326,360)"/>
<path d="M0 0 C0.33 0 0.66 0 1 0 C1.00173625 0.69848736 1.0034725 1.39697471 1.00526136 2.11662835 C1.10823784 43.49343622 1.21633915 84.87022792 1.33111694 126.24700482 C1.3448869 131.21260272 1.35861394 136.17820074 1.37231445 141.14379883 C1.37504276 142.13238077 1.37777106 143.1209627 1.38058204 144.13950167 C1.42468481 160.15693668 1.4653089 176.17437874 1.50465261 192.19182607 C1.54508516 208.62111129 1.58924394 225.05038343 1.63687855 241.47964936 C1.66616543 251.62143043 1.69252853 261.7632105 1.71517897 271.90500859 C1.73097885 278.85491499 1.75039058 285.80480538 1.77266841 292.75469401 C1.78542354 296.7673656 1.79656142 300.78002489 1.80341911 304.79271126 C1.80972989 308.46485067 1.82056627 312.13694763 1.8350333 315.80906371 C1.8415719 317.7697984 1.84323944 319.73054745 1.84474558 321.69129246 C1.85022002 322.85425164 1.85569446 324.01721082 1.8613348 325.21541119 C1.86399284 326.21901202 1.86665089 327.22261285 1.86938947 328.25662583 C1.99692294 330.93536875 2.400317 333.38995974 3 336 C3.66 336 4.32 336 5 336 C6.36884358 340.51718381 5.47075246 343.58774263 4 348 C-0.80845632 339.24120144 -0.2852598 328.74208843 -0.24050903 319.03523254 C-0.2413829 317.65217961 -0.24313719 316.26912701 -0.24568737 314.88607615 C-0.25012941 311.11416175 -0.24220087 307.34236235 -0.23213124 303.57046258 C-0.22345336 299.49222676 -0.22641996 295.41399686 -0.22793579 291.33575439 C-0.22898191 284.27939646 -0.22273393 277.22307566 -0.21146011 270.16672707 C-0.19517095 259.96457402 -0.18999362 249.76243884 -0.18748413 239.56027421 C-0.18311238 223.00591157 -0.16981741 206.45156871 -0.15087891 189.8972168 C-0.13250663 173.82104592 -0.11835673 157.74488043 -0.10986328 141.66870117 C-0.10933783 140.6769216 -0.10881239 139.68514203 -0.10827102 138.66330854 C-0.10566085 133.68758982 -0.10313345 128.71187107 -0.10064721 123.73615229 C-0.07993091 82.49075445 -0.04471957 41.24537836 0 0 Z " fill="#A4A4A4" transform="translate(10,80)"/>
<path d="M0 0 C1.32 0 2.64 0 4 0 C6.01020252 5.66511619 4.19961286 7.40116141 2 14 C-44.53 14 -91.06 14 -139 14 C-139 13.67 -139 13.34 -139 13 C-94.12 12.67 -49.24 12.34 -3 12 C-2.67 10.35 -2.34 8.7 -2 7 C-1.34 6.67 -0.68 6.34 0 6 C0 4.02 0 2.04 0 0 Z " fill="#E6E4EC" transform="translate(381,120)"/>
<path d="M0 0 C1.65 0.33 3.3 0.66 5 1 C6 5.75 6 5.75 6 8 C6.804375 8.45375 7.60875 8.9075 8.4375 9.375 C11 11 11 11 11.6875 13.125 C11.790625 13.74375 11.89375 14.3625 12 15 C12.66 15.33 13.32 15.66 14 16 C13.525625 16.804375 13.05125 17.60875 12.5625 18.4375 C10.70640382 22.66939929 10.29440022 26.43172078 10 31 C10.99 31 11.98 31 13 31 C13.33 32.65 13.66 34.3 14 36 C10.125 38 10.125 38 9 38 C8.01 38.495 8.01 38.495 7 39 C7.15855469 38.32582031 7.31710938 37.65164063 7.48046875 36.95703125 C8.88726328 28.94993756 9.50106544 19.66514703 5.15625 12.51171875 C3.60749396 10.48682487 1.86570169 8.73243729 0 7 C0 6.34 0 5.68 0 5 C-0.66 5 -1.32 5 -2 5 C-1 2 -1 2 0 0 Z " fill="#EFF0F0" transform="translate(212,345)"/>
<path d="M0 0 C3 0 3 0 6 2 C5.67 3.65 5.34 5.3 5 7 C7.60097682 8.30048841 10.13955062 8.56471422 13 9 C14 13.75 14 13.75 14 16 C9.93687797 14.57161648 6.78098171 12.60352958 3.3125 10.0625 C2.35988281 9.37285156 1.40726563 8.68320312 0.42578125 7.97265625 C-2 6 -2 6 -4 3 C-3.01 2.67 -2.02 2.34 -1 2 C-0.67 1.34 -0.34 0.68 0 0 Z " fill="#EFEFEE" transform="translate(36,456)"/>
<path d="M0 0 C0.66 0.33 1.32 0.66 2 1 C2 1.66 2 2.32 2 3 C2.33 3.66 2.66 4.32 3 5 C2.01 5 1.02 5 0 5 C0 5.66 0 6.32 0 7 C-1.32 7 -2.64 7 -4 7 C-4.33 8.65 -4.66 10.3 -5 12 C-5.66 12 -6.32 12 -7 12 C-7.474375 12.639375 -7.94875 13.27875 -8.4375 13.9375 C-10 16 -10 16 -13 17 C-13 17.99 -13 18.98 -13 20 C-13.66 20 -14.32 20 -15 20 C-15.33 22.31 -15.66 24.62 -16 27 C-17.32 27.33 -18.64 27.66 -20 28 C-20 28.99 -20 29.98 -20 31 C-20.66 31 -21.32 31 -22 31 C-18.66477284 18.32613681 -9.15401427 8.85872349 0 0 Z " fill="#C5C6CA" transform="translate(38,28)"/>
<path d="M0 0 C0.66 0.33 1.32 0.66 2 1 C1.690625 1.556875 1.38125 2.11375 1.0625 2.6875 C-0.52139334 6.13479727 -1 9.2207586 -1 13 C-2.32 13.33 -3.64 13.66 -5 14 C-5 13.34 -5 12.68 -5 12 C-7.64 12.33 -10.28 12.66 -13 13 C-13 11.68 -13 10.36 -13 9 C-18.28 9 -23.56 9 -29 9 C-29 8.67 -29 8.34 -29 8 C-21.08 8 -13.16 8 -5 8 C-5 7.34 -5 6.68 -5 6 C-4.0409375 5.2884375 -4.0409375 5.2884375 -3.0625 4.5625 C-0.71627037 3.0908635 -0.71627037 3.0908635 0 0 Z " fill="#F6F8FB" transform="translate(359,330)"/>
<path d="M0 0 C1.65 0.33 3.3 0.66 5 1 C4.49302778 4.97128236 3.86854664 8.89016281 3.0625 12.8125 C2.90910156 13.56144531 2.75570313 14.31039062 2.59765625 15.08203125 C2 17 2 17 0 19 C-0.99 18.34 -1.98 17.68 -3 17 C-5.0492094 16.54860541 -5.0492094 16.54860541 -7.1875 16.375 C-8.445625 16.25125 -9.70375 16.1275 -11 16 C-11 15.67 -11 15.34 -11 15 C-8.03 15 -5.06 15 -2 15 C-2.04125 14.071875 -2.0825 13.14375 -2.125 12.1875 C-2 9 -2 9 0 6 C0.16699232 2.87478167 0.16699232 2.87478167 0 0 Z " fill="#F3F4F4" transform="translate(365,186)"/>
<path d="M0 0 C0.33 0 0.66 0 1 0 C1.33 3.3 1.66 6.6 2 10 C2.66 10 3.32 10 4 10 C3.39252336 16.43925234 3.39252336 16.43925234 1.6875 18.875 C-0.19442737 20.12961825 -1.81050133 20.50341267 -4 21 C-3.39700836 13.76410027 -1.8849413 7.00629124 0 0 Z " fill="#F4F4F4" transform="translate(382,204)"/>
<path d="M0 0 C4.60805521 -0.12394421 9.21513281 -0.21449675 13.82446289 -0.2746582 C15.39104114 -0.29974547 16.95750299 -0.33382415 18.52368164 -0.37719727 C20.78040309 -0.43811226 23.03557294 -0.46626499 25.29296875 -0.48828125 C25.98899704 -0.51408768 26.68502533 -0.5398941 27.40214539 -0.56648254 C31.27372627 -0.56869685 32.87706038 -0.09730389 35.95043945 2.33520508 C38 5 38 5 38.5 8.125 C37.96567755 11.19735411 37.45179712 12.16115216 35 14 C34.505 12.02 34.505 12.02 34 10 C34.99 10 35.98 10 37 10 C35.27773504 6.75150023 35.27773504 6.75150023 32 6 C32.33 5.67 32.66 5.34 33 5 C29.53803659 1.78157297 26.91331051 1.59020418 22.265625 1.48828125 C20.97011719 1.45283203 19.67460937 1.41738281 18.33984375 1.38085938 C16.97656774 1.35776133 15.61328636 1.33497886 14.25 1.3125 C12.87106138 1.27931352 11.4921535 1.24482262 10.11328125 1.20898438 C6.74226941 1.12647709 3.37151872 1.05733229 0 1 C0 0.67 0 0.34 0 0 Z " fill="#34333A" transform="translate(401,97)"/>
<path d="M0 0 C3.66666667 3.66666667 7.33333333 7.33333333 11 11 C9.02 11.99 9.02 11.99 7 13 C7.99 13.33 8.98 13.66 10 14 C8.68 14.33 7.36 14.66 6 15 C6 14.01 6 13.02 6 12 C5.34 12 4.68 12 4 12 C4.33 12.99 4.66 13.98 5 15 C3.35 15 1.7 15 0 15 C0 10 0 5 0 0 Z " fill="#E7E8E6" transform="translate(298,385)"/>
<path d="M0 0 C0.66 0 1.32 0 2 0 C2.33 0.99 2.66 1.98 3 3 C3.45375 2.505 3.9075 2.01 4.375 1.5 C6 0 6 0 8 0 C7.68917128 1.75029762 7.37626821 3.50022694 7.0625 5.25 C6.88847656 6.22453125 6.71445312 7.1990625 6.53515625 8.203125 C6.09620271 10.49721795 5.59651408 12.74291971 5 15 C3.68 15 2.36 15 1 15 C1.33 12.69 1.66 10.38 2 8 C1.34 8 0.68 8 0 8 C0 5.36 0 2.72 0 0 Z " fill="#12111E" transform="translate(378,189)"/>
<path d="M0 0 C1.29315061 0.95632999 2.58446853 1.91513851 3.875 2.875 C4.59429687 3.40867187 5.31359375 3.94234375 6.0546875 4.4921875 C8 6 8 6 10 8 C8 11 8 11 4.875 11.6875 C3.451875 11.8421875 3.451875 11.8421875 2 12 C0 9 0 9 0 6 C-0.66 5.67 -1.32 5.34 -2 5 C-2 3.68 -2 2.36 -2 1 C-1.34 0.67 -0.68 0.34 0 0 Z " fill="#F1F1EF" transform="translate(172,388)"/>
<path d="M0 0 C9 0 9 0 12 1 C12.61875 0.835 13.2375 0.67 13.875 0.5 C16.51280286 -0.1206595 18.3981146 0.34952865 21 1 C20.525625 1.45375 20.05125 1.9075 19.5625 2.375 C17.90972192 3.93258204 17.90972192 3.93258204 17 6 C19.475 6.495 19.475 6.495 22 7 C18.83583924 8.03613097 17.04852628 7.96740255 13.92578125 6.85546875 C12.80139648 6.45811523 12.80139648 6.45811523 11.65429688 6.05273438 C10.88150391 5.76720703 10.10871094 5.48167969 9.3125 5.1875 C8.52810547 4.91357422 7.74371094 4.63964844 6.93554688 4.35742188 C1.1330596 2.2661192 1.1330596 2.2661192 0 0 Z " fill="#D8DAD6" transform="translate(50,472)"/>
<path d="M0 0 C1.37344385 4.39844322 0.24307502 7.92504555 -0.9375 12.25 C-1.13279297 12.99507812 -1.32808594 13.74015625 -1.52929688 14.5078125 C-2.01104198 16.34079386 -2.50439225 18.17071818 -3 20 C-3.99 20 -4.98 20 -6 20 C-5.85904936 18.3745692 -5.71207913 16.74965949 -5.5625 15.125 C-5.48128906 14.22007812 -5.40007812 13.31515625 -5.31640625 12.3828125 C-5 10 -5 10 -4 8 C-4.061875 7.195625 -4.12375 6.39125 -4.1875 5.5625 C-4 3 -4 3 -2 1.1875 C-1.34 0.795625 -0.68 0.40375 0 0 Z " fill="#13131D" transform="translate(377,222)"/>
<path d="M0 0 C-11.04109589 10 -11.04109589 10 -15 10 C-15.66 7.69 -16.32 5.38 -17 3 C-16.29875 3.20625 -15.5975 3.4125 -14.875 3.625 C-11.39813928 4.07850357 -9.22601877 3.27540277 -6 2 C-6 1.34 -6 0.68 -6 0 C-3.50907189 -1.24546405 -2.58919267 -0.7767578 0 0 Z " fill="#D1D1D4" transform="translate(499,461)"/>
<path d="M0 0 C1.09658936 3.28976808 0.79953138 4.71303767 0 8 C-0.66 8 -1.32 8 -2 8 C-2 8.66 -2 9.32 -2 10 C-3.32 10 -4.64 10 -6 10 C-6.33 10.99 -6.66 11.98 -7 13 C-8.875 13.875 -8.875 13.875 -11 14 C-12.6328125 12.5078125 -12.6328125 12.5078125 -14 11 C-13.32453125 10.62488281 -12.6490625 10.24976563 -11.953125 9.86328125 C-5.10718335 5.94216036 -5.10718335 5.94216036 0 0 Z " fill="#E0DFE3" transform="translate(216,386)"/>
<path d="M0 0 C0.99 0.33 1.98 0.66 3 1 C2.09238938 2.75471386 1.17349289 4.50359264 0.25 6.25 C-0.26046875 7.22453125 -0.7709375 8.1990625 -1.296875 9.203125 C-2.94819881 11.91493199 -4.66491299 13.86796403 -7 16 C-7.40652968 10.57960425 -6.03993514 6.92984325 -4 2 C-3.01 2 -2.02 2 -1 2 C-0.67 1.34 -0.34 0.68 0 0 Z " fill="#DBDCE0" transform="translate(512,438)"/>
<path d="M0 0 C0.5534764 2.07553648 1 3.84365964 1 6 C1.66 6 2.32 6 3 6 C3 4.35 3 2.7 3 1 C4.8591451 4.13730736 5.36368085 6.3631915 5 10 C4 12.3125 4 12.3125 3 14 C1.02 14 -0.96 14 -3 14 C-2.69024532 12.22868439 -2.37709575 10.45796222 -2.0625 8.6875 C-1.88847656 7.70136719 -1.71445312 6.71523437 -1.53515625 5.69921875 C-1 3 -1 3 0 0 Z " fill="#DDDEDF" transform="translate(373,242)"/>
<path d="M0 0 C2.625 -0.1875 2.625 -0.1875 5 0 C5.33 0.99 5.66 1.98 6 3 C5.46890625 3.38671875 4.9378125 3.7734375 4.390625 4.171875 C0.67177773 6.91350693 -2.85329738 9.59107216 -6 13 C-6.625 11.125 -6.625 11.125 -7 9 C-6.34 8.34 -5.68 7.68 -5 7 C-5.66 6.01 -6.32 5.02 -7 4 C-5.824375 3.8453125 -5.824375 3.8453125 -4.625 3.6875 C-1.66954819 3.22404978 -1.66954819 3.22404978 0 0 Z " fill="#EFEFEF" transform="translate(177,344)"/>
<path d="M0 0 C0.66 0 1.32 0 2 0 C1.68806536 1.72926874 1.37542638 3.45841044 1.0625 5.1875 C0.88847656 6.15042969 0.71445312 7.11335938 0.53515625 8.10546875 C0.0476265 10.74239972 -0.46671105 13.3719905 -1 16 C-1.99 15.01 -2.98 14.02 -4 13 C-4.33 14.32 -4.66 15.64 -5 17 C-5.33 17 -5.66 17 -6 17 C-6.27932961 8.62011173 -6.27932961 8.62011173 -4 5 C-3.67 4.01 -3.34 3.02 -3 2 C-2.01 2 -1.02 2 0 2 C0 1.34 0 0.68 0 0 Z " fill="#10111E" transform="translate(400,120)"/>
<path d="M0 0 C1.32 0 2.64 0 4 0 C5.71050559 4.97601626 4.00885647 8.42616295 2 13 C0.35 13 -1.3 13 -3 13 C-2.625 10.0625 -2.625 10.0625 -2 7 C-1.34 6.67 -0.68 6.34 0 6 C0 4.02 0 2.04 0 0 Z " fill="#EDEEF2" transform="translate(381,120)"/>
<path d="M0 0 C-0.06006078 1.45947705 -0.1488689 2.91779272 -0.25 4.375 C-0.31960938 5.59316406 -0.31960938 5.59316406 -0.390625 6.8359375 C-1 9 -1 9 -3.046875 10.2890625 C-4.01367188 10.64097656 -4.01367188 10.64097656 -5 11 C-6.32 9.68 -7.64 8.36 -9 7 C-8.07347299 5.82460004 -7.13336613 4.65989423 -6.1875 3.5 C-5.66542969 2.8503125 -5.14335937 2.200625 -4.60546875 1.53125 C-3 0 -3 0 0 0 Z " fill="#E9EAED" transform="translate(346,387)"/>
<path d="M0 0 C6.61085476 0.48969295 11.94977014 2.33442742 18 5 C17.01 5.66 16.02 6.32 15 7 C15 6.34 15 5.68 15 5 C11.5184446 4.90052699 8.3677519 5.06451336 5 6 C4.67 6.66 4.34 7.32 4 8 C4.33 6.02 4.66 4.04 5 2 C3.35 2 1.7 2 0 2 C0 1.34 0 0.68 0 0 Z " fill="#BFC0C4" transform="translate(462,14)"/>
<path d="M0 0 C10.23 0 20.46 0 31 0 C31 0.33 31 0.66 31 1 C28.36 1 25.72 1 23 1 C23 1.66 23 2.32 23 3 C20.36 3 17.72 3 15 3 C15 2.34 15 1.68 15 1 C10.05 1 5.1 1 0 1 C0 0.67 0 0.34 0 0 Z " fill="#0C0A15" transform="translate(323,322)"/>
<path d="M0 0 C1.32 0 2.64 0 4 0 C4 1.65 4 3.3 4 5 C5.65 5 7.3 5 9 5 C8.01 5.495 8.01 5.495 7 6 C7.66 8.31 8.32 10.62 9 13 C8.34 13.66 7.68 14.32 7 15 C6.0115904 13.44333045 5.03464918 11.87937574 4.0625 10.3125 C3.51722656 9.44238281 2.97195312 8.57226562 2.41015625 7.67578125 C1.02832828 5.05375311 0.41519827 2.91689925 0 0 Z " fill="#D0D1D4" transform="translate(16,434)"/>
<path d="M0 0 C1.9453125 -0.29296875 1.9453125 -0.29296875 4.125 -0.1875 C5.40375 -0.125625 6.6825 -0.06375 8 0 C8 0.66 8 1.32 8 2 C7.21625 2.226875 6.4325 2.45375 5.625 2.6875 C2.78125 3.78125 2.78125 3.78125 1.6875 6.625 C1.460625 7.40875 1.23375 8.1925 1 9 C0.34 8.67 -0.32 8.34 -1 8 C-1.66 8.66 -2.32 9.32 -3 10 C-2.25 3.375 -2.25 3.375 0 0 Z " fill="#E7E7EC" transform="translate(405,113)"/>
<path d="M0 0 C0.66 0.33 1.32 0.66 2 1 C1.34 2.65 0.68 4.3 0 6 C-0.66 5.67 -1.32 5.34 -2 5 C-1.42415568 7.38564077 -0.77772405 9.66682784 0 12 C-0.33 12.66 -0.66 13.32 -1 14 C-0.01 14.33 0.98 14.66 2 15 C-0.375 14.6875 -0.375 14.6875 -3 14 C-5.42242143 10.36636786 -5.17302701 9.00156411 -4.55859375 4.875 C-4 3 -4 3 -1.9375 1 C-1.298125 0.67 -0.65875 0.34 0 0 Z " fill="#25242C" transform="translate(162,322)"/>
<path d="M0 0 C-0.32721168 3.05397571 -1.03116777 4.03116777 -3.25 6.25 C-6.26604599 8.16930199 -7.51850289 8.36647338 -11 8 C-11.99 8 -12.98 8 -14 8 C-12.75312408 7.03760548 -11.50235031 6.08025991 -10.25 5.125 C-9.55390625 4.59132813 -8.8578125 4.05765625 -8.140625 3.5078125 C-3.16062176 0 -3.16062176 0 0 0 Z " fill="#C0C0C3" transform="translate(54,19)"/>
<path d="M0 0 C2.31 0.33 4.62 0.66 7 1 C6.26330078 2.04220703 6.26330078 2.04220703 5.51171875 3.10546875 C3.75171541 6.47539763 3.68823419 8.54310384 3.8125 12.3125 C3.83957031 13.38113281 3.86664063 14.44976562 3.89453125 15.55078125 C3.92933594 16.35902344 3.96414062 17.16726562 4 18 C1.2173829 15.2173829 1.59069336 12.89667775 1.34375 9.09375 C1.17368193 6.78487741 1.17368193 6.78487741 -1 5 C-0.625 2.375 -0.625 2.375 0 0 Z " fill="#E2E1E6" transform="translate(115,136)"/>
<path d="M0 0 C1.65 0.33 3.3 0.66 5 1 C5.625 2.8125 5.625 2.8125 6 5 C5.01 6.485 5.01 6.485 4 8 C4 8.66 4 9.32 4 10 C3.01 10.33 2.02 10.66 1 11 C-0.62950412 6.87831311 -1.26264601 4.29299643 0 0 Z " fill="#F3F4F5" transform="translate(164,262)"/>
<path d="M0 0 C0.33 0 0.66 0 1 0 C1 2.64 1 5.28 1 8 C1.99 8 2.98 8 4 8 C4.33 9.65 4.66 11.3 5 13 C1.125 15 1.125 15 0 15 C-0.99 15.495 -0.99 15.495 -2 16 C-1.34 10.72 -0.68 5.44 0 0 Z " fill="#E4E4E5" transform="translate(221,368)"/>
<path d="M0 0 C2.00720923 0.28674418 4.0085944 0.61866701 6 1 C3.33333333 3 0.66666667 5 -2 7 C-3.32 6.34 -4.64 5.68 -6 5 C-6 4.01 -6 3.02 -6 2 C-2.125 1 -2.125 1 -1 1 C-0.67 0.67 -0.34 0.34 0 0 Z " fill="#EDECEF" transform="translate(307,344)"/>
<path d="M0 0 C0.99 0.33 1.98 0.66 3 1 C2.67 2.98 2.34 4.96 2 7 C6.455 7.99 6.455 7.99 11 9 C11 9.33 11 9.66 11 10 C6.38 10 1.76 10 -3 10 C-2.34 9.67 -1.68 9.34 -1 9 C-1 8.34 -1 7.68 -1 7 C-0.34 7 0.32 7 1 7 C0.34 5.02 -0.32 3.04 -1 1 C-0.67 0.67 -0.34 0.34 0 0 Z " fill="#F2F2F5" transform="translate(151,195)"/>
<path d="M0 0 C0.66 0.33 1.32 0.66 2 1 C1.5359375 1.8353125 1.5359375 1.8353125 1.0625 2.6875 C-0.52139334 6.13479727 -1 9.2207586 -1 13 C-2.32 13.33 -3.64 13.66 -5 14 C-5.97353743 10.97121688 -6.24612776 8.97153543 -5 6 C-3.68662604 4.9739266 -2.35335895 3.97272675 -1 3 C-0.67 2.01 -0.34 1.02 0 0 Z " fill="#E9E9EB" transform="translate(359,330)"/>
<path d="M0 0 C1 3 1 3 -0.4375 6.1875 C-1.2109375 7.5796875 -1.2109375 7.5796875 -2 9 C-3.32 9 -4.64 9 -6 9 C-6.68707555 6.50935112 -7 4.62113708 -7 2 C-5.68 2 -4.36 2 -3 2 C-2.67 2.33 -2.34 2.66 -2 3 C-1.34 2.01 -0.68 1.02 0 0 Z " fill="#EBEDEC" transform="translate(353,254)"/>
<path d="M0 0 C1.32 0.66 2.64 1.32 4 2 C-0.71159603 5.73678306 -4.01903338 6.11284843 -10 6 C-10.33 5.34 -10.66 4.68 -11 4 C-10.37351562 3.87882812 -9.74703125 3.75765625 -9.1015625 3.6328125 C-8.28429687 3.46523438 -7.46703125 3.29765625 -6.625 3.125 C-5.81289063 2.96257812 -5.00078125 2.80015625 -4.1640625 2.6328125 C-1.81326077 2.13341068 -1.81326077 2.13341068 0 0 Z " fill="#DFE0E4" transform="translate(327,377)"/>
<path d="M0 0 C1 3 1 3 1 7 C0.34 7 -0.32 7 -1 7 C-1 7.66 -1 8.32 -1 9 C-0.01 9.33 0.98 9.66 2 10 C-0.31 9.67 -2.62 9.34 -5 9 C-4.5206753 4.68607774 -3.2542015 2.83430453 0 0 Z " fill="#E4E6E9" transform="translate(365,270)"/>
<path d="M0 0 C0 2 0 4 0 6 C-0.66 6 -1.32 6 -2 6 C-2.33 8.31 -2.66 10.62 -3 13 C-4.32 13.33 -5.64 13.66 -7 14 C-7 14.99 -7 15.98 -7 17 C-7.66 17 -8.32 17 -9 17 C-7.46933687 11.18348012 -4.32262613 4.32262613 0 0 Z " fill="#B6B6BE" transform="translate(25,42)"/>
<path d="M0 0 C0.33 0 0.66 0 1 0 C1.2475 1.051875 1.495 2.10375 1.75 3.1875 C2.76700786 6.8133541 4.45373429 9.19910772 7 12 C4.69 12.33 2.38 12.66 0 13 C-1.29676812 8.38926889 -0.71109139 4.66159911 0 0 Z " fill="#181921" transform="translate(309,370)"/>
<path d="M0 0 C5.50366792 -0.32374517 9.43672206 -0.53286034 14 3 C13.34 3.66 12.68 4.32 12 5 C10 5 8 5 6 5 C6 4.34 6 3.68 6 3 C5.34 3 4.68 3 4 3 C4 2.34 4 1.68 4 1 C2.68 0.67 1.36 0.34 0 0 Z " fill="#EDEAEE" transform="translate(189,360)"/>
<path d="M0 0 C2.18742014 3.2811302 2.54442806 5.33084356 3.125 9.1875 C3.29257813 10.27417969 3.46015625 11.36085937 3.6328125 12.48046875 C3.75398437 13.31191406 3.87515625 14.14335937 4 15 C3.01 15 2.02 15 1 15 C1 14.34 1 13.68 1 13 C0.34 13 -0.32 13 -1 13 C-0.67 8.71 -0.34 4.42 0 0 Z " fill="#DADBDD" transform="translate(126,182)"/>
<path d="M0 0 C0.886875 0.103125 1.77375 0.20625 2.6875 0.3125 C2.5 2.1875 2.5 2.1875 1.6875 4.3125 C-1.20355597 5.99894932 -2.79352512 6.38169665 -6.125 5.9375 C-6.846875 5.73125 -7.56875 5.525 -8.3125 5.3125 C-4.12788462 0.38942308 -4.12788462 0.38942308 0 0 Z " fill="#F5F5F5" transform="translate(46.3125,25.6875)"/>
<path d="M0 0 C0.33 0 0.66 0 1 0 C1.33 1.65 1.66 3.3 2 5 C2.66 5 3.32 5 4 5 C5.36884358 9.51718381 4.47075246 12.58774263 3 17 C0.68847958 12.68516188 -0.13445355 9.14284126 -0.0625 4.25 C-0.05347656 3.45078125 -0.04445313 2.6515625 -0.03515625 1.828125 C-0.02355469 1.22484375 -0.01195312 0.6215625 0 0 Z " fill="#C5C5C9" transform="translate(11,411)"/>
<path d="M0 0 C0.66 0 1.32 0 2 0 C2.33 4.29 2.66 8.58 3 13 C2.67 12.34 2.34 11.68 2 11 C1.01 10.67 0.02 10.34 -1 10 C-2.15837626 5.94568308 -1.83691257 3.78187881 0 0 Z " fill="#E5E4E7" transform="translate(293,368)"/>
<path d="M0 0 C2.66389689 2.66389689 2.98142077 4.40323509 3.09765625 8.13671875 C3.08605469 9.30847656 3.07445312 10.48023438 3.0625 11.6875 C3.05347656 12.86699219 3.04445313 14.04648438 3.03515625 15.26171875 C3.02355469 16.16535156 3.01195312 17.06898438 3 18 C2.67 18 2.34 18 2 18 C1.67 16.35 1.34 14.7 1 13 C0.67 13 0.34 13 0 13 C-0.19397476 11.02145742 -0.38001321 9.0421352 -0.5625 7.0625 C-0.66691406 5.96035156 -0.77132813 4.85820312 -0.87890625 3.72265625 C-0.91886719 2.82417969 -0.95882813 1.92570313 -1 1 C-0.67 0.67 -0.34 0.34 0 0 Z " fill="#161525" transform="translate(326,158)"/>
<path d="M0 0 C2.97 0.495 2.97 0.495 6 1 C7 5.75 7 5.75 7 8 C4.5625 7.1875 4.5625 7.1875 2 6 C1.67 5.01 1.34 4.02 1 3 C1.33 2.34 1.66 1.68 2 1 C1.34 0.67 0.68 0.34 0 0 Z " fill="#E3E2E4" transform="translate(43,464)"/>
<path d="M0 0 C2.31 0.66 4.62 1.32 7 2 C7.33 4.64 7.66 7.28 8 10 C7.67 9.01 7.34 8.02 7 7 C5.68 7.33 4.36 7.66 3 8 C2.01 5.36 1.02 2.72 0 0 Z " fill="#EDEEF1" transform="translate(345,358)"/>
<path d="M0 0 C0.99 0.33 1.98 0.66 3 1 C2.979375 1.94875 2.95875 2.8975 2.9375 3.875 C2.77448174 6.90666283 2.77448174 6.90666283 4 9 C3.5625 11.125 3.5625 11.125 3 13 C2.34 13 1.68 13 1 13 C0.63779734 11.20994059 0.28547531 9.41787943 -0.0625 7.625 C-0.25972656 6.62726563 -0.45695313 5.62953125 -0.66015625 4.6015625 C-1 2 -1 2 0 0 Z " fill="#0D0D15" transform="translate(147,256)"/>
<path d="M0 0 C0.33 0 0.66 0 1 0 C1.25549427 3.2484911 1.47476093 6.49845121 1.6875 9.75 C1.76033203 10.67039063 1.83316406 11.59078125 1.90820312 12.5390625 C1.96298828 13.42851562 2.01777344 14.31796875 2.07421875 15.234375 C2.13182373 16.05131836 2.18942871 16.86826172 2.2487793 17.70996094 C1.93888764 20.56254558 0.86751623 21.87423295 -1 24 C-1.14525497 15.94641862 -0.71413279 8.02124152 0 0 Z " fill="#32323B" transform="translate(206,232)"/>
<path d="M0 0 C0.33 0 0.66 0 1 0 C1.33 3.63 1.66 7.26 2 11 C1.01 11.66 0.02 12.32 -1 13 C-1.66 13.99 -2.32 14.98 -3 16 C-2.30834212 10.58201328 -1.24200752 5.3177215 0 0 Z " fill="#DAD9DF" transform="translate(382,204)"/>
<path d="M0 0 C1.32 0 2.64 0 4 0 C5.1577506 3.47325181 5.06866652 6.36067448 5 10 C4.01 10.33 3.02 10.66 2 11 C1.34 7.37 0.68 3.74 0 0 Z " fill="#16161E" transform="translate(123,169)"/>
<path d="M0 0 C1.46366342 0.39753821 2.9208935 0.81881384 4.375 1.25 C5.18710938 1.48203125 5.99921875 1.7140625 6.8359375 1.953125 C9.45785454 3.2214892 9.99382318 4.32423308 11 7 C9.35 7.33 7.7 7.66 6 8 C5.67 7.34 5.34 6.68 5 6 C4.01 5.67 3.02 5.34 2 5 C0.8125 2.4375 0.8125 2.4375 0 0 Z " fill="#EAE9ED" transform="translate(155,286)"/>
<path d="M0 0 C1.23593891 3.70781672 0.5678132 4.67510253 -0.9375 8.1875 C-1.31777344 9.08855469 -1.69804688 9.98960937 -2.08984375 10.91796875 C-2.54037109 11.94857422 -2.54037109 11.94857422 -3 13 C-3.66 12.34 -4.32 11.68 -5 11 C-4.6442194 7.62008426 -3.64284201 4.95711562 -2 2 C-1.34 2 -0.68 2 0 2 C0 1.34 0 0.68 0 0 Z " fill="#B9B8BE" transform="translate(519,424)"/>
<path d="M0 0 C2.475 0.99 2.475 0.99 5 2 C1.30827405 5.53790403 -2.09390595 5.59115883 -7 6 C-6.67 5.01 -6.34 4.02 -6 3 C-4.0625 2.4375 -4.0625 2.4375 -2 2 C-1.34 1.34 -0.68 0.68 0 0 Z " fill="#1B1B24" transform="translate(331,392)"/>
<path d="M0 0 C2.64 0.33 5.28 0.66 8 1 C8 1.66 8 2.32 8 3 C8.99 3.66 9.98 4.32 11 5 C9.5629191 5.05422947 8.12524538 5.09289723 6.6875 5.125 C5.88699219 5.14820313 5.08648437 5.17140625 4.26171875 5.1953125 C2 5 2 5 -1 3 C-0.67 2.01 -0.34 1.02 0 0 Z " fill="#CFD0D4" transform="translate(187,378)"/>
<path d="M0 0 C0.33 0 0.66 0 1 0 C1.33 2.64 1.66 5.28 2 8 C2.66 8 3.32 8 4 8 C3.625 10.4375 3.625 10.4375 3 13 C2.01 13.495 2.01 13.495 1 14 C1 15.32 1 16.64 1 18 C0.34 18 -0.32 18 -1 18 C-0.505 9.09 -0.505 9.09 0 0 Z " fill="#2B2B31" transform="translate(307,248)"/>
<path d="M0 0 C3.24299151 2.38957269 5.50902342 4.2047869 7 8 C4.36 8 1.72 8 -1 8 C-1 7.34 -1 6.68 -1 6 C-0.34 6 0.32 6 1 6 C0.67 4.02 0.34 2.04 0 0 Z " fill="#C8C8CA" transform="translate(498,32)"/>
<path d="M0 0 C-0.99 0.33 -1.98 0.66 -3 1 C-2.34 1.66 -1.68 2.32 -1 3 C-7.4 4.23076923 -7.4 4.23076923 -10.4375 3.0625 C-10.953125 2.711875 -11.46875 2.36125 -12 2 C-10.75579353 1.4654744 -9.50429064 0.94791389 -8.25 0.4375 C-7.55390625 0.14746094 -6.8578125 -0.14257812 -6.140625 -0.44140625 C-3.69987216 -1.07831803 -2.3596345 -0.80248831 0 0 Z " fill="#BCBDC1" transform="translate(66,16)"/>
<path d="M0 0 C0.598125 0.226875 1.19625 0.45375 1.8125 0.6875 C0.8125 2.6875 -0.1875 4.6875 -1.1875 6.6875 C-2.1775 6.6875 -3.1675 6.6875 -4.1875 6.6875 C-4.875 4.875 -4.875 4.875 -5.1875 2.6875 C-3.58493056 0.24147296 -2.95482043 -0.4221172 0 0 Z " fill="#12131A" transform="translate(184.1875,360.3125)"/>
<path d="M0 0 C-5.14285714 5.57142857 -5.14285714 5.57142857 -9 6 C-9 4.68 -9 3.36 -9 2 C-5.5647952 -0.29013653 -4.014669 -0.17842973 0 0 Z " fill="#DCDDDB" transform="translate(322,360)"/>
<path d="M0 0 C0.82638376 2.89234315 1 4.88742431 1 8 C-0.32 8.33 -1.64 8.66 -3 9 C-3 8.34 -3 7.68 -3 7 C-3.66 6.67 -4.32 6.34 -5 6 C-3.35 4.02 -1.7 2.04 0 0 Z " fill="#12101F" transform="translate(176,351)"/>
<path d="M0 0 C0.66 0.66 1.32 1.32 2 2 C0.71254964 2.38922918 -0.58019597 2.76098036 -1.875 3.125 C-2.95394531 3.43824219 -2.95394531 3.43824219 -4.0546875 3.7578125 C-4.69664062 3.83773438 -5.33859375 3.91765625 -6 4 C-6.66 3.34 -7.32 2.68 -8 2 C-8 1.34 -8 0.68 -8 0 C-5.09288879 -1.4535556 -3.10402897 -0.71133997 0 0 Z " fill="#12121D" transform="translate(208,348)"/>
<path d="M0 0 C0.66 0.33 1.32 0.66 2 1 C4.14404169 1.09706713 6.29126751 1.12978536 8.4375 1.125 C9.59121094 1.12757813 10.74492187 1.13015625 11.93359375 1.1328125 C15.04125667 1.13895922 15.04125667 1.13895922 18 0 C18.33 0.66 18.66 1.32 19 2 C15.71646451 3.64176774 12.10480362 3.18454039 8.5 3.1875 C7.71496094 3.19974609 6.92992187 3.21199219 6.12109375 3.22460938 C4.07936274 3.22986254 2.03807749 3.1222018 0 3 C-0.66 2.34 -1.32 1.68 -2 1 C-1.34 0.67 -0.68 0.34 0 0 Z " fill="#393B43" transform="translate(185,395)"/>
<path d="M0 0 C1.32 0.66 2.64 1.32 4 2 C3.01 4.97 2.02 7.94 1 11 C0.67 11 0.34 11 0 11 C-0.66 8.03 -1.32 5.06 -2 2 C-1.34 2 -0.68 2 0 2 C0 1.34 0 0.68 0 0 Z " fill="#EBEAEE" transform="translate(156,322)"/>
<path d="M0 0 C1.98 0 3.96 0 6 0 C5.34 0.66 4.68 1.32 4 2 C3.17623729 5.70693221 2.88851581 9.20953744 3 13 C1.32889958 10.03821227 0.67317248 7.62928808 0.375 4.25 C0.30023438 3.45078125 0.22546875 2.6515625 0.1484375 1.828125 C0.09945312 1.22484375 0.05046875 0.6215625 0 0 Z " fill="#E4E5E7" transform="translate(135,151)"/>
<path d="M0 0 C0 0.99 0 1.98 0 3 C-1.65 3.66 -3.3 4.32 -5 5 C-5.99 3.35 -6.98 1.7 -8 0 C-4.71303767 -0.79953138 -3.28976808 -1.09658936 0 0 Z " fill="#14121E" transform="translate(161,281)"/>
<path d="M0 0 C0.33 0 0.66 0 1 0 C2.5056904 5.80766296 3.21824777 10.9981863 3 17 C2.67 17 2.34 17 2 17 C2 15.02 2 13.04 2 11 C1.01 10.67 0.02 10.34 -1 10 C-0.67 6.7 -0.34 3.4 0 0 Z " fill="#1B1C25" transform="translate(206,247)"/>
<path d="M0 0 C1.65 1.65 3.3 3.3 5 5 C4.67 5.66 4.34 6.32 4 7 C1.08482708 5.92598892 -0.77810176 5.22189824 -3 3 C-2.34 3 -1.68 3 -1 3 C-0.67 2.01 -0.34 1.02 0 0 Z " fill="#D3D3D5" transform="translate(507,43)"/>
<path d="M0 0 C1.42944945 2.35438733 2.08661261 3.48032433 1.625 6.25 C1.41875 6.8275 1.2125 7.405 1 8 C-0.65 8 -2.3 8 -4 8 C-2.87548273 5.0280615 -1.77706209 2.66559313 0 0 Z " fill="#1A1729" transform="translate(302,352)"/>
<path d="M0 0 C0.33 0.99 0.66 1.98 1 3 C-1.64 2.34 -4.28 1.68 -7 1 C-7 1.66 -7 2.32 -7 3 C-9 2 -9 2 -10 0 C-6.7169902 -1.6415049 -3.57454967 -0.51888624 0 0 Z " fill="#201F2A" transform="translate(193,346)"/>
<path d="M0 0 C0.33 0.99 0.66 1.98 1 3 C-0.21484375 4.82421875 -0.21484375 4.82421875 -1.9375 6.6875 C-2.50339844 7.31011719 -3.06929687 7.93273437 -3.65234375 8.57421875 C-4.09707031 9.04472656 -4.54179687 9.51523437 -5 10 C-5.66 8.68 -6.32 7.36 -7 6 C-4.69 4.02 -2.38 2.04 0 0 Z " fill="#E4E3E8" transform="translate(177,347)"/>
<path d="M0 0 C5.28 0 10.56 0 16 0 C16 0.33 16 0.66 16 1 C14.7934375 1.185625 14.7934375 1.185625 13.5625 1.375 C12.716875 1.58125 11.87125 1.7875 11 2 C10.67 2.66 10.34 3.32 10 4 C9.46375 3.690625 8.9275 3.38125 8.375 3.0625 C5.6015043 1.82172561 2.99957163 1.4090325 0 1 C0 0.67 0 0.34 0 0 Z " fill="#E9E8ED" transform="translate(282,284)"/>
<path d="M0 0 C0.99 0.495 0.99 0.495 2 1 C2.99 0.67 3.98 0.34 5 0 C6 2 6 2 5.0625 5.125 C4.711875 6.07375 4.36125 7.0225 4 8 C3.01 7.67 2.02 7.34 1 7 C0.67 4.69 0.34 2.38 0 0 Z " fill="#0F0D17" transform="translate(131,199)"/>
<path d="M0 0 C3.37462715 0.54723683 5.08235 1.0549 8 3 C5.09399739 4.25664978 3.20395416 5 0 5 C0 3.35 0 1.7 0 0 Z " fill="#CAC9CD" transform="translate(466,474)"/>
<path d="M0 0 C0.33 0 0.66 0 1 0 C1.66 3.96 2.32 7.92 3 12 C1.68 12 0.36 12 -1 12 C-0.67 8.04 -0.34 4.08 0 0 Z " fill="#DFDFE0" transform="translate(166,370)"/>
<path d="M0 0 C2.45823172 3.68734758 3.01242616 6.69699971 4 11 C3.01 11 2.02 11 1 11 C-0.62950412 6.87831311 -1.26264601 4.29299643 0 0 Z " fill="#CFCED5" transform="translate(148,269)"/>
<path d="M0 0 C-1.45255699 3.82946843 -3.42895561 5.12050295 -7 7 C-7 4 -7 4 -5.1875 1.8125 C-3 0 -3 0 0 0 Z " fill="#1D1C25" transform="translate(127,135)"/>
<path d="M0 0 C0 4.01474237 -1.66781767 5.81975137 -4 9 C-4.33 9 -4.66 9 -5 9 C-5.3125 6.1875 -5.3125 6.1875 -5 3 C-2.5 1.125 -2.5 1.125 0 0 Z " fill="#B3B4B7" transform="translate(510,445)"/>
<path d="M0 0 C6.875 3.75 6.875 3.75 8 6 C7.01 6.33 6.02 6.66 5 7 C5 6.34 5 5.68 5 5 C2.03 4.505 2.03 4.505 -1 4 C-0.67 2.68 -0.34 1.36 0 0 Z " fill="#C7C7C8" transform="translate(486,23)"/>
<path d="M0 0 C2.38564077 0.57584432 4.66682784 1.22227595 7 2 C7 3.32 7 4.64 7 6 C2.32307692 4.52307692 2.32307692 4.52307692 0.6875 1.875 C0.460625 1.25625 0.23375 0.6375 0 0 Z " fill="#CAC9CD" transform="translate(38,463)"/>
<path d="M0 0 C-1.75 5.75 -1.75 5.75 -4 8 C-5 7 -5 7 -5.25 4.5625 C-5.1675 3.716875 -5.085 2.87125 -5 2 C-2 0 -2 0 0 0 Z " fill="#E2E1E5" transform="translate(299,356)"/>
<path d="M0 0 C1.9375 0.8125 1.9375 0.8125 3.9375 2.8125 C2.25 3.9375 2.25 3.9375 -0.0625 4.8125 C-2.8125 3.9375 -2.8125 3.9375 -5.0625 2.8125 C-2.62182203 -0.23834746 -2.62182203 -0.23834746 0 0 Z " fill="#F5F6F8" transform="translate(320.0625,282.1875)"/>
<path d="M0 0 C1.65 0 3.3 0 5 0 C5 0.66 5 1.32 5 2 C6.65 2.33 8.3 2.66 10 3 C5.99799622 4.60080151 2.95443764 3.29279692 -1 2 C-0.67 1.34 -0.34 0.68 0 0 Z " fill="#B3B4BB" transform="translate(62,476)"/>
<path d="M0 0 C0.99 0 1.98 0 3 0 C3 0.99 3 1.98 3 3 C3.66 3.33 4.32 3.66 5 4 C4.01 4.33 3.02 4.66 2 5 C2 5.66 2 6.32 2 7 C1.34 7 0.68 7 0 7 C-0.93423645 3.98968256 -1.04449911 3.13349732 0 0 Z " fill="#F1F3F2" transform="translate(491,456)"/>
<path d="M0 0 C0.66 0.33 1.32 0.66 2 1 C1.67 2.98 1.34 4.96 1 7 C-2.875 5.25 -2.875 5.25 -4 3 C-3.01 2.67 -2.02 2.34 -1 2 C-0.67 1.34 -0.34 0.68 0 0 Z " fill="#C4C3C7" transform="translate(36,456)"/>
<path d="M0 0 C0.33 1.32 0.66 2.64 1 4 C-2.32534757 5.10844919 -4.62182575 4.84454356 -8 4 C-5.33333333 2.66666667 -2.66666667 1.33333333 0 0 Z " fill="#DEDEE3" transform="translate(336,394)"/>
<path d="M0 0 C0.33 1.98 0.66 3.96 1 6 C-1.31 6 -3.62 6 -6 6 C-5.01 5.01 -4.02 4.02 -3 3 C-3.66 2.34 -4.32 1.68 -5 1 C-3 0 -3 0 0 0 Z " fill="#22212E" transform="translate(197,354)"/>
<path d="M0 0 C0.66 0.33 1.32 0.66 2 1 C1.34 2.32 0.68 3.64 0 5 C-1.65 5 -3.3 5 -5 5 C-4 2 -4 2 -2.0625 0.75 C-1.381875 0.5025 -0.70125 0.255 0 0 Z " fill="#F5F5F8" transform="translate(29,42)"/>
<path d="M0 0 C2.0625 0.4375 2.0625 0.4375 4 1 C2.71937515 2.7074998 1.38232443 4.37373596 0 6 C-0.66 6 -1.32 6 -2 6 C-1.125 1.125 -1.125 1.125 0 0 Z " fill="#D0D0D4" transform="translate(28,38)"/>
<path d="M0 0 C0 1.32 0 2.64 0 4 C-3.28696233 4.79953138 -4.71023192 5.09658936 -8 4 C-2.25 0 -2.25 0 0 0 Z " fill="#201F29" transform="translate(311,347)"/>
<path d="M0 0 C0.66 0.33 1.32 0.66 2 1 C2.33 1.99 2.66 2.98 3 4 C3.99 4.66 4.98 5.32 6 6 C5.34 6.66 4.68 7.32 4 8 C4 7.34 4 6.68 4 6 C2.35 6.33 0.7 6.66 -1 7 C-0.67 4.69 -0.34 2.38 0 0 Z " fill="#1B1B25" transform="translate(188,200)"/>
<path d="M0 0 C0.33 0 0.66 0 1 0 C1.33 2.31 1.66 4.62 2 7 C1.01 6.67 0.02 6.34 -1 6 C-1.33 6.66 -1.66 7.32 -2 8 C-2.33 6.02 -2.66 4.04 -3 2 C-2.34 2 -1.68 2 -1 2 C-0.67 1.34 -0.34 0.68 0 0 Z " fill="#1A141E" transform="translate(141,178)"/>
<path d="M0 0 C0.99 0 1.98 0 3 0 C2.34 3.96 1.68 7.92 1 12 C0.67 12 0.34 12 0 12 C-1.28571429 3.42857143 -1.28571429 3.42857143 0 0 Z " fill="#E0E1E5" transform="translate(376,151)"/>
<path d="M0 0 C0.99 0.33 1.98 0.66 3 1 C2.34 1 1.68 1 1 1 C1.33 2.32 1.66 3.64 2 5 C-0.31 4.67 -2.62 4.34 -5 4 C-2.6875 1.9375 -2.6875 1.9375 0 0 Z " fill="#21232E" transform="translate(316,393)"/>
<path d="M0 0 C1.09658936 3.28976808 0.79953138 4.71303767 0 8 C-0.66 8 -1.32 8 -2 8 C-2.33 8.66 -2.66 9.32 -3 10 C-4 7 -4 7 -3.22265625 5.17578125 C-2.1484375 3.45052083 -1.07421875 1.72526042 0 0 Z " fill="#EAEAEE" transform="translate(216,386)"/>
<path d="M0 0 C2.2477975 2.05233685 3.0022242 3.00667261 4 6 C1.0625 5.1875 1.0625 5.1875 -2 4 C-2.33 3.01 -2.66 2.02 -3 1 C-2.01 0.67 -1.02 0.34 0 0 Z " fill="#1C1C26" transform="translate(342,354)"/>
<path d="M0 0 C2 1.625 2 1.625 4 4 C4.25 7.25 4.25 7.25 4 10 C3.67 10 3.34 10 3 10 C3 8.35 3 6.7 3 5 C2.01 5 1.02 5 0 5 C-0.33 4.01 -0.66 3.02 -1 2 C-0.67 1.34 -0.34 0.68 0 0 Z " fill="#47454E" transform="translate(355,323)"/>
<path d="M0 0 C3.96 0 7.92 0 12 0 C9.08235 1.9451 7.37462715 2.45276317 4 3 C4 2.34 4 1.68 4 1 C2.68 0.67 1.36 0.34 0 0 Z " fill="#25252D" transform="translate(220,272)"/>
<path d="M0 0 C2.64 0 5.28 0 8 0 C7.01 1.485 7.01 1.485 6 3 C2.875 3.1875 2.875 3.1875 0 3 C0 2.01 0 1.02 0 0 Z " fill="#F3F3F7" transform="translate(266,202)"/>
<path d="M0 0 C2.97 0.495 2.97 0.495 6 1 C5.67 1.66 5.34 2.32 5 3 C4.01 3.33 3.02 3.66 2 4 C2.99 4.33 3.98 4.66 5 5 C3.68 5.33 2.36 5.66 1 6 C0.67 4.02 0.34 2.04 0 0 Z " fill="#F1F1F3" transform="translate(303,394)"/>
<path d="M0 0 C0.66 1.32 1.32 2.64 2 4 C1.01 4.99 0.02 5.98 -1 7 C-1.66 5.68 -2.32 4.36 -3 3 C-2.01 2.01 -1.02 1.02 0 0 Z " fill="#191A22" transform="translate(303,384)"/>
<path d="M0 0 C0.66 0.33 1.32 0.66 2 1 C0.35 2.65 -1.3 4.3 -3 6 C-3.99 5.34 -4.98 4.68 -6 4 C-4.68 3.67 -3.36 3.34 -2 3 C-2 2.34 -2 1.68 -2 1 C-1.34 0.67 -0.68 0.34 0 0 Z " fill="#E0E0E4" transform="translate(203,376)"/>
<path d="M0 0 C1.32 0.33 2.64 0.66 4 1 C3.67 2.32 3.34 3.64 3 5 C3.99 5.33 4.98 5.66 6 6 C4.35 5.67 2.7 5.34 1 5 C0.67 3.35 0.34 1.7 0 0 Z " fill="#1C1B20" transform="translate(158,331)"/>
<path d="M0 0 C1.1875 1.5 1.1875 1.5 2 4 C1.27101296 6.78824238 0.1843275 9.37665092 -1 12 C-2.45606519 7.47907032 -1.27032841 4.48351204 0 0 Z " fill="#D1D1D5" transform="translate(395,149)"/>
<path d="M0 0 C0.66 0.33 1.32 0.66 2 1 C1.34 1.66 0.68 2.32 0 3 C0.66 3.66 1.32 4.32 2 5 C0.35 5.33 -1.3 5.66 -3 6 C-3 4.68 -3 3.36 -3 2 C-2.01 1.34 -1.02 0.68 0 0 Z " fill="#16161C" transform="translate(399,98)"/>
<path d="M0 0 C1.32 0 2.64 0 4 0 C4 2.64 4 5.28 4 8 C1.10067643 5.60490662 0.49831724 3.68754757 0 0 Z " fill="#ADADAF" transform="translate(16,434)"/>
<path d="M0 0 C1.32 1.32 2.64 2.64 4 4 C0.7 3.67 -2.6 3.34 -6 3 C-3 1 -3 1 0 0 Z " fill="#16161F" transform="translate(204,380)"/>
<path d="M0 0 C2.1519437 3.22791555 2.20086443 4.28400809 2 8 C1.34 8 0.68 8 0 8 C-0.38063221 5.6739143 -0.71269945 3.33944736 -1 1 C-0.67 0.67 -0.34 0.34 0 0 Z " fill="#E8E9EC" transform="translate(164,262)"/>
<path d="M0 0 C2.475 0.495 2.475 0.495 5 1 C5 2.65 5 4.3 5 6 C4.34 5.34 3.68 4.68 3 4 C2.34 4.66 1.68 5.32 1 6 C0.67 4.02 0.34 2.04 0 0 Z " fill="#EBECEE" transform="translate(365,186)"/>
<path d="" fill="#25242C" transform="translate(0,0)"/>
<path d="" fill="#2C2B3B" transform="translate(0,0)"/>
</svg>
